<?xml version="1.0" encoding="utf-8"?>
<!-- Generator: Adobe Illustrator 25.0.1, SVG Export Plug-In . SVG Version: 6.00 Build 0)  -->
<svg version="1.1" id="レイヤー_2_1_" xmlns="http://www.w3.org/2000/svg" xmlns:xlink="http://www.w3.org/1999/xlink" x="0px"
	 y="0px" viewBox="0 0 189.8 55.6" style="enable-background:new 0 0 189.8 55.6;" xml:space="preserve">
<style type="text/css">
	.st0{fill:#3E6DA9;}
</style>
<path class="st0" d="M63.8,40.7h-8.7V10.5h8.7V40.7z M56.1,39.7h6.7V11.5h-6.7V39.7z"/>
<path class="st0" d="M109.3,40.3h-8V24.8c0-2.7-2.5-7.4-7.5-7.4s-7.5,4.8-7.5,7.4v15.5h-8V24.8c0-9.1,8.2-15.4,15.5-15.4
	s15.5,6.3,15.5,15.4V40.3z"/>
<path class="st0" d="M86.3,40.3h-8V24.8c0-2.7-2.5-7.4-7.5-7.4s-7.5,4.8-7.5,7.4v15.5h-8V24.8c0-9.1,8.2-15.4,15.5-15.4
	s15.5,6.3,15.5,15.4V40.3z"/>
<rect x="55.3" y="11" class="st0" width="8" height="18.6"/>
<rect x="42.1" y="11" class="st0" width="8" height="29.2"/>
<rect x="147.5" y="11" class="st0" width="8" height="25.4"/>
<rect x="182" y="11" class="st0" width="8" height="29.2"/>
<rect x="182" class="st0" width="8" height="7.6"/>
<rect x="7.4" class="st0" width="8" height="7.6"/>
<path class="st0" d="M34.3,40.8c-8.4,0-15.2-6.8-15.2-15.2s6.8-15.2,15.2-15.2s15.2,6.8,15.2,15.2C49.6,34,42.7,40.8,34.3,40.8z
	 M34.3,18.4c-4,0-7.2,3.2-7.2,7.2s3.2,7.2,7.2,7.2s7.2-3.2,7.2-7.2C41.6,21.6,38.3,18.4,34.3,18.4z"/>
<path class="st0" d="M128.4,40.8c-8.4,0-15.2-6.8-15.2-15.2s6.8-15.2,15.2-15.2s15.2,6.8,15.2,15.2C143.6,34,136.8,40.8,128.4,40.8z
	 M128.4,18.4c-4,0-7.2,3.2-7.2,7.2s3.2,7.2,7.2,7.2s7.2-3.2,7.2-7.2C135.6,21.6,132.4,18.4,128.4,18.4z"/>
<path class="st0" d="M147.5,40.9v-8c12.6,0,22.9-9.8,22.9-21.9h8C178.4,27.5,164.5,40.9,147.5,40.9z"/>
<path class="st0" d="M0.2,55.5v-8c4,0,7.2-3.2,7.2-7.2V11h8v29.2C15.4,48.6,8.6,55.5,0.2,55.5z"/>
</svg>
