<?xml version="1.0" encoding="utf-8"?>
<!-- Generator: Adobe Illustrator 25.2.1, SVG Export Plug-In . SVG Version: 6.00 Build 0)  -->
<svg version="1.1"
	 id="svg2" xmlns:cc="http://creativecommons.org/ns#" xmlns:dc="http://purl.org/dc/elements/1.1/" xmlns:rdf="http://www.w3.org/1999/02/22-rdf-syntax-ns#"
	 xmlns="http://www.w3.org/2000/svg" xmlns:xlink="http://www.w3.org/1999/xlink" x="0px" y="0px" viewBox="0 0 25.6 25.8"
	 style="enable-background:new 0 0 25.6 25.8;" xml:space="preserve">
<style type="text/css">
	.st0{fill:none;stroke:#686868;stroke-width:3;stroke-linecap:round;stroke-miterlimit:10;}
</style>
<g>
	<g>
		<path class="st0" d="M22.1,20.1L20,22.2c-1.5,1.5-4,1.5-5.5,0l-2.1-2.1c-1.5-1.5-0.9-4.6-0.7-6.2c0.1-0.4,0.1-1.5,0.3-1.8
			s1.3-0.3,1.8-0.3c1.5-0.2,4.7-0.8,6.2,0.7l2.1,2.1C23.6,16.1,23.6,18.6,22.1,20.1z"/>
		<path class="st0" d="M3.5,5.7l2.1-2.1c1.5-1.5,4-1.5,5.5,0l2.1,2.1c1.5,1.5,0.9,4.6,0.7,6.2c-0.1,0.4-0.1,1.5-0.3,1.8
			s-1.3,0.3-1.8,0.3c-1.5,0.2-4.7,0.8-6.2-0.7l-2.1-2.1C2,9.7,2,7.2,3.5,5.7z"/>
	</g>
	<line class="st0" x1="16.5" y1="16.6" x2="9.1" y2="9.2"/>
</g>
</svg>
