<?xml version="1.0" encoding="utf-8"?>
<!-- Generator: Adobe Illustrator 25.2.1, SVG Export Plug-In . SVG Version: 6.00 Build 0)  -->
<svg version="1.1"
	 id="svg2" xmlns:cc="http://creativecommons.org/ns#" xmlns:dc="http://purl.org/dc/elements/1.1/" xmlns:rdf="http://www.w3.org/1999/02/22-rdf-syntax-ns#"
	 xmlns="http://www.w3.org/2000/svg" xmlns:xlink="http://www.w3.org/1999/xlink" x="0px" y="0px" viewBox="0 0 35 25.8"
	 style="enable-background:new 0 0 35 25.8;" xml:space="preserve">
<style type="text/css">
	.st0{fill:#686868;stroke:#686868;stroke-width:2;stroke-miterlimit:10;}
</style>
<g>
	<path class="st0" d="M26.5,19.9c-0.3,0-0.5-0.1-0.7-0.3c-0.4-0.4-0.4-1,0-1.4l5.3-5.3l-5.3-5.3c-0.4-0.4-0.4-1,0-1.4s1-0.4,1.4,0
		l6,6c0.4,0.4,0.4,1,0,1.4l-6,6C27,19.8,26.8,19.9,26.5,19.9z"/>
	<path class="st0" d="M8.5,19.9c-0.3,0-0.5-0.1-0.7-0.3l-6-6c-0.4-0.4-0.4-1,0-1.4l6-6c0.4-0.4,1-0.4,1.4,0s0.4,1,0,1.4l-5.3,5.3
		l5.3,5.3c0.4,0.4,0.4,1,0,1.4C9,19.8,8.8,19.9,8.5,19.9z"/>
	<path class="st0" d="M14.6,24.5c-0.1,0-0.2,0-0.3,0c-0.7-0.2-1.1-0.9-0.9-1.6l5.4-20.5c0.2-0.7,0.9-1.1,1.6-0.9
		C21,1.6,21.4,2.3,21.2,3l-5.4,20.5C15.7,24.1,15.2,24.5,14.6,24.5z"/>
</g>
</svg>
